<svg width="110" height="64" viewBox="0 0 110 64" fill="none" xmlns="http://www.w3.org/2000/svg">
<g clip-path="url(#clip0)">
<path d="M48.5 23.2H36.9V34.8H48.5V23.2Z" fill="black"/>
<path d="M71.6 0H60V11.6H71.6V0Z" fill="black"/>
<path d="M60 0V11.6H48.5V23.2C42.1 23.2 36.9 18 36.9 11.6C36.9 5.2 42.1 0 48.5 0H60Z" fill="url(#paint0_linear)"/>
<path d="M71.6 23.2C71.6 29.6 66.4 34.8 60 34.8H48.5V23.2H60.1V11.6C66.5 11.6 71.6 16.8 71.6 23.2Z" fill="url(#paint1_linear)"/>
<path d="M0 60.6L2.4 57.8C3.9 59 5.6 59.7 7.4 59.7C8.5 59.7 9.2 59.3 9.2 58.6C9.2 58 8.7 57.6 6.6 57.1C3.3 56.3 0.8 55.4 0.8 52.2C0.8 49.3 3.1 47.3 6.8 47.3C9.4 47.3 11.5 48 13.2 49.4L11.1 52.4C9.7 51.4 8.1 50.9 6.8 50.9C5.8 50.9 5.3 51.3 5.3 51.9C5.3 52.6 5.8 52.9 8 53.4C11.6 54.2 13.8 55.3 13.8 58.2C13.8 61.4 11.3 63.2 7.6 63.2C4.5 63.1 1.9 62.3 0 60.6Z" fill="black"/>
<path d="M15.4 56.1V47.4H19.7V56C19.7 58.2 20.8 59.3 22.5 59.3C24.2 59.3 25.3 58.3 25.3 56.1V47.4H29.6V56C29.6 61 26.8 63.2 22.4 63.2C18 63.2 15.4 60.9 15.4 56.1Z" fill="black"/>
<path d="M32.3 47.4H38.9C42.8 47.4 45.3 49.4 45.3 52.8C45.3 56.4 42.5 58.4 38.7 58.4H36.6V62.8H32.3V47.4ZM38.6 55.1C40.1 55.1 41 54.3 41 53.1C41 51.8 40.1 51.1 38.5 51.1H36.5V55.2H38.6V55.1Z" fill="black"/>
<path d="M47.1 47.4H54.4C56.8 47.4 58.4 48 59.4 49.1C60.3 50 60.8 51.2 60.8 52.7C60.8 55.1 59.5 56.6 57.6 57.4L61.3 62.8H56.4L53.3 58.1H51.5V62.8H47.2V47.4H47.1ZM54.2 54.8C55.7 54.8 56.5 54.1 56.5 53C56.5 51.8 55.6 51.2 54.2 51.2H51.4V54.9H54.2V54.8Z" fill="black"/>
<path d="M63 47.4H75.4V51.2H67.3V53.8H74.6V57.4H67.3V62.9H63V47.4Z" fill="black"/>
<path d="M80.9 47.3H85L91.6 62.9H87L85.9 60.1H79.9L78.8 62.9H74.3L80.9 47.3ZM84.6 56.8L82.9 52.4L81.2 56.8H84.6Z" fill="black"/>
<path d="M93.1 47.4H97.6L101.3 53.4L105 47.4H109.5V62.8H105.2V54L101.2 60H101.1L97.2 54V62.8H93V47.4H93.1Z" fill="black"/>
</g>
<defs>
<linearGradient id="paint0_linear" x1="36.8823" y1="11.5831" x2="60.0485" y2="11.5831" gradientUnits="userSpaceOnUse">
<stop stop-color="#6D13D6"/>
<stop offset="1" stop-color="#18E1F9"/>
</linearGradient>
<linearGradient id="paint1_linear" x1="48.4712" y1="23.172" x2="71.6374" y2="23.172" gradientUnits="userSpaceOnUse">
<stop stop-color="#9E13D6"/>
<stop offset="1" stop-color="#FF3FDE"/>
</linearGradient>
<clipPath id="clip0">
<rect width="109.5" height="63.2" fill="white"/>
</clipPath>
</defs>
</svg>
